<svg width="24" height="24" viewBox="0 0 24 24" xmlns="http://www.w3.org/2000/svg">
<path d="m 8.5546875,6.3964844 c 0,0 -1.2685108,0.9330429 -2.546875,2.0429687 C 5.3686304,8.994416 4.7257492,9.5922137 4.21875,10.166016 3.7117508,10.739818 3.2499939,11.19625 3.25,12 c 6.1e-6,0.803739 0.4617545,1.260183 0.96875,1.833984 0.5069955,0.573802 1.1498869,1.1716 1.7890625,1.726563 1.2783513,1.109926 2.546875,2.042969 2.546875,2.042969 A 0.75,0.75 0 0 0 9.6035156,17.445312 0.75,0.75 0 0 0 9.4453125,16.396484 c 0,0 -1.2315013,-0.908077 -2.453125,-1.96875 C 6.3813756,13.897398 5.774247,13.327066 5.34375,12.839844 5.2974708,12.787466 5.3195189,12.801819 5.2792969,12.75 H 20 A 0.75,0.75 0 0 0 20.75,12 0.75,0.75 0 0 0 20,11.25 H 5.2792969 c 0.040222,-0.05182 0.018174,-0.03747 0.064453,-0.08984 0.4304989,-0.487222 1.0376196,-1.057554 1.6484375,-1.5878904 1.2216358,-1.060672 2.453125,-1.96875 2.453125,-1.96875 A 0.75,0.75 0 0 0 9.6035156,6.5546875 0.75,0.75 0 0 0 8.5546875,6.3964844 Z" fill="#8F8881" />
</svg>
