<svg width="24" height="24" viewBox="0 0 24 24" xmlns="http://www.w3.org/2000/svg">
<path d="M 12,2.25 C 8.9315928,2.25 6.443108,4.5087262 5.921875,7.4375 3.2768521,7.9555306 1.25,10.224846 1.25,13.017578 c 0,2.777809 1.9726275,5.110327 4.5996094,5.644531 A 0.75,0.75 0 0 0 6.734375,18.076172 0.75,0.75 0 0 0 6.1503906,17.191406 C 4.2128971,16.797411 2.75,15.086565 2.75,13.017578 2.75,10.79407 4.4347745,8.9849353 6.5917969,8.7792969 6.7260329,8.7664975 6.8620294,8.7597656 7,8.7597656 c 0.9602642,0 1.83793,0.314522 2.5488281,0.8496094 A 0.75,0.75 0 0 0 10.599609,9.4628906 0.75,0.75 0 0 0 10.451172,8.4121094 C 9.6147843,7.782567 8.5800578,7.432647 7.4785156,7.3378906 8.0090501,5.2898341 9.7843522,3.75 12,3.75 c 2.631528,0 4.75,2.1212104 4.75,4.7597656 0,0.1463674 -0.0067,0.2907154 -0.01953,0.4335938 -0.08848,0.9829551 -0.473518,1.8765086 -1.066406,2.5957036 a 0.75,0.75 0 0 0 0.101562,1.05664 0.75,0.75 0 0 0 1.056641,-0.101562 C 17.433776,11.752357 17.81028,10.838776 18.029297,9.8671875 19.843901,10.133038 21.25,11.622797 21.25,13.519531 c 0,1.943424 -1.456713,3.526673 -3.332031,3.734375 a 0.75,0.75 0 0 0 -0.664063,0.828125 0.75,0.75 0 0 0 0.828125,0.664063 C 20.706708,18.455396 22.75,16.217102 22.75,13.519531 22.75,10.884056 20.762996,8.781966 18.230469,8.4101563 18.173872,5.0107918 15.408442,2.25 12,2.25 Z" />
<path d="m 12,12.25 c -0.123968,0 -0.237113,0.01965 -0.337891,0.04883 -0.403564,0.116572 -0.653008,0.338497 -0.912109,0.580078 -0.259101,0.241582 -0.50527,0.520751 -0.738281,0.800782 -0.4660233,0.560061 -0.9225577,1.166964 -1.0488284,1.296875 a 0.75,0.75 0 0 0 0.013672,1.060546 0.75,0.75 0 0 0 1.0605465,-0.01367 c 0.336506,-0.346206 0.703497,-0.875859 1.126954,-1.384765 0.02992,-0.03596 0.05598,-0.05855 0.08594,-0.09375 V 21 A 0.75,0.75 0 0 0 12,21.75 0.75,0.75 0 0 0 12.75,21 v -6.439453 c 0.156257,0.184073 0.311033,0.355002 0.460938,0.544922 0.283315,0.358939 0.516854,0.676077 0.751953,0.917968 a 0.75,0.75 0 0 0 1.060547,0.01367 0.75,0.75 0 0 0 0.01367,-1.060546 c -0.08823,-0.09079 -0.356349,-0.428775 -0.648437,-0.798829 -0.271291,-0.343709 -0.58109,-0.730161 -0.90625,-1.068359 -0.32516,-0.338198 -0.61603,-0.654722 -1.136719,-0.808594 C 12.243412,12.270557 12.127662,12.25 12,12.25 Z" />
</svg>
